<svg version="1.1" id="Layer_1" xmlns="http://www.w3.org/2000/svg" xmlns:xlink="http://www.w3.org/1999/xlink" x="0px" y="0px"
	 width="100%" viewBox="0 0 800 800" enable-background="new 0 0 800 800" xml:space="preserve">
<path fill="#FFFFFF" opacity="1.000000" stroke="none" 
	d="
M1.000001,447.000000 
	C1.000000,427.645782 1.000000,408.291534 1.437867,388.460144 
	C2.245665,387.548737 2.920350,387.128876 2.941628,386.678223 
	C3.818142,368.112000 7.061107,349.932465 10.848988,331.750824 
	C16.773333,303.314270 25.977962,275.995361 38.166367,249.771515 
	C51.380718,221.340332 67.601501,194.662323 87.258690,170.056412 
	C102.016289,151.583572 118.112389,134.526443 135.677872,118.745316 
	C152.024643,104.059113 169.576508,91.075478 188.115295,79.294991 
	C213.033310,63.460823 239.416534,50.807438 267.211639,40.922272 
	C290.486115,32.644836 314.186890,26.199465 338.709869,22.998508 
	C352.108551,21.249598 365.507446,18.510057 378.943085,18.269049 
	C399.254883,17.904694 419.652435,18.644510 439.911530,20.223783 
	C455.054474,21.404236 470.097076,24.317039 485.077454,27.045370 
	C516.222900,32.717785 545.689148,43.689472 574.186707,57.139301 
	C594.283447,66.624268 613.672852,77.599594 631.420654,91.069351 
	C645.548340,101.791580 659.645691,112.669914 672.771790,124.565521 
	C688.280823,138.620590 702.398254,154.102081 715.342163,170.672836 
	C729.492004,188.787476 742.084717,207.876068 752.928101,228.074051 
	C766.776001,253.868607 777.918884,280.810211 785.617188,309.133820 
	C792.386780,334.040741 797.553711,359.204041 799.077454,385.035980 
	C799.137756,386.058197 800.333374,387.013489 801.000000,388.000000 
	C801.000000,407.354218 801.000000,426.708466 800.562134,446.539886 
	C799.416748,451.368958 798.677307,455.715912 798.007507,460.073578 
	C795.642212,475.460388 794.244568,491.068726 790.752441,506.194214 
	C783.626282,537.059387 773.080872,566.863770 758.894104,595.243591 
	C753.122559,606.789368 746.460815,617.890015 740.113708,629.356323 
	C735.572021,623.449280 731.625793,618.311218 727.673706,613.177673 
	C717.675598,600.190796 707.682983,587.199646 697.672974,574.221863 
	C687.460815,560.982056 677.283081,547.715271 666.994141,534.535217 
	C655.788879,520.181274 644.378906,505.986389 633.232910,491.586945 
	C622.715881,478.000031 612.534119,464.153381 602.009521,450.572418 
	C587.576843,431.948364 572.893738,413.518463 558.442139,394.908966 
	C546.301636,379.275482 534.391357,363.463348 522.283020,347.804688 
	C509.366150,331.100494 496.283325,314.524567 483.371490,297.816528 
	C471.369080,282.285309 459.512604,266.641449 447.562286,251.069809 
	C434.326172,233.822647 421.034973,216.617722 407.816681,199.356934 
	C404.527222,195.061447 397.982635,194.740524 394.621368,198.907639 
	C392.174408,201.941208 389.778809,205.017227 387.405518,208.109009 
	C375.352814,223.810730 363.370819,239.567062 351.255890,255.220581 
	C339.322815,270.639160 327.202545,285.912842 315.270905,301.332550 
	C303.259003,316.855927 291.386383,332.487091 279.437347,348.059235 
	C269.560822,360.930481 259.666931,373.788422 249.771027,386.644806 
	C241.849380,396.936279 233.967773,407.259216 225.970230,417.491486 
	C214.756363,431.838837 203.358398,446.043030 192.212265,460.442444 
	C181.695160,474.029236 171.498291,487.863892 160.985275,501.453918 
	C148.853012,517.137146 136.457779,532.616821 124.308037,548.286743 
	C112.280952,563.798401 100.445045,579.458069 88.473007,595.012634 
	C79.798782,606.282471 71.039192,617.486633 61.500156,629.773071 
	C53.649601,614.515076 45.829529,599.770935 38.427071,584.820068 
	C28.001064,563.762451 20.411207,541.589478 14.602219,518.893005 
	C10.966482,504.687653 8.575323,490.143646 6.087267,475.672272 
	C4.597856,467.009308 4.047275,458.187012 2.925289,449.455566 
	C2.811394,448.569214 1.666467,447.815338 1.000001,447.000000 
z"/>
<path fill="#000000" opacity="1.000000" stroke="none" 
	d="
M1.000001,447.468658 
	C1.666467,447.815338 2.811394,448.569214 2.925289,449.455566 
	C4.047275,458.187012 4.597856,467.009308 6.087267,475.672272 
	C8.575323,490.143646 10.966482,504.687653 14.602219,518.893005 
	C20.411207,541.589478 28.001064,563.762451 38.427071,584.820068 
	C45.829529,599.770935 53.649601,614.515076 61.500156,629.773071 
	C71.039192,617.486633 79.798782,606.282471 88.473007,595.012634 
	C100.445045,579.458069 112.280952,563.798401 124.308037,548.286743 
	C136.457779,532.616821 148.853012,517.137146 160.985275,501.453918 
	C171.498291,487.863892 181.695160,474.029236 192.212265,460.442444 
	C203.358398,446.043030 214.756363,431.838837 225.970230,417.491486 
	C233.967773,407.259216 241.849380,396.936279 249.771027,386.644806 
	C259.666931,373.788422 269.560822,360.930481 279.437347,348.059235 
	C291.386383,332.487091 303.259003,316.855927 315.270905,301.332550 
	C327.202545,285.912842 339.322815,270.639160 351.255890,255.220581 
	C363.370819,239.567062 375.352814,223.810730 387.405518,208.109009 
	C389.778809,205.017227 392.174408,201.941208 394.621368,198.907639 
	C397.982635,194.740524 404.527222,195.061447 407.816681,199.356934 
	C421.034973,216.617722 434.326172,233.822647 447.562286,251.069809 
	C459.512604,266.641449 471.369080,282.285309 483.371490,297.816528 
	C496.283325,314.524567 509.366150,331.100494 522.283020,347.804688 
	C534.391357,363.463348 546.301636,379.275482 558.442139,394.908966 
	C572.893738,413.518463 587.576843,431.948364 602.009521,450.572418 
	C612.534119,464.153381 622.715881,478.000031 633.232910,491.586945 
	C644.378906,505.986389 655.788879,520.181274 666.994141,534.535217 
	C677.283081,547.715271 687.460815,560.982056 697.672974,574.221863 
	C707.682983,587.199646 717.675598,600.190796 727.673706,613.177673 
	C731.625793,618.311218 735.572021,623.449280 740.113708,629.356323 
	C746.460815,617.890015 753.122559,606.789368 758.894104,595.243591 
	C773.080872,566.863770 783.626282,537.059387 790.752441,506.194214 
	C794.244568,491.068726 795.642212,475.460388 798.007507,460.073578 
	C798.677307,455.715912 799.416748,451.368958 800.562134,447.008545 
	C801.000000,564.965759 801.000000,682.931580 801.000000,800.897339 
	C800.867615,800.931519 800.735229,800.995728 800.602844,800.995728 
	C534.180115,801.000000 267.757416,801.000000 1.000000,801.000000 
	C1.000000,683.312622 1.000000,565.625000 1.000001,447.468658 
M480.997559,489.579193 
	C486.005493,508.683441 490.980896,527.796265 496.029785,546.889709 
	C502.104919,569.864319 508.183472,592.838318 514.368591,615.783447 
	C521.512146,642.283875 528.869995,668.726746 535.958069,695.241882 
	C543.860718,724.804260 551.564575,754.419861 559.391174,784.149780 
	C563.277588,782.411987 566.808105,780.900146 570.282410,779.268860 
	C590.558777,769.748108 610.351135,759.214111 628.280212,745.807312 
	C645.363586,733.032898 661.899536,719.440063 677.873047,705.299744 
	C687.590820,696.697205 696.115112,686.656006 704.574280,676.747803 
	C712.786316,667.129150 720.172119,656.808472 728.057251,646.904724 
	C729.783203,644.736877 729.538574,643.353638 727.872070,641.284485 
	C718.899414,630.143738 709.992371,618.946655 701.254089,607.621399 
	C690.761292,594.022278 680.576172,580.185303 670.048462,566.613708 
	C656.603577,549.281555 642.873474,532.170837 629.408020,514.854431 
	C617.261414,499.234009 605.361328,483.422089 593.250122,467.773895 
	C581.320679,452.360474 569.200134,437.094940 557.276978,421.676758 
	C542.990112,403.201965 528.829956,384.629181 514.602600,366.108398 
	C504.621246,353.115021 494.629608,340.129425 484.623352,327.155243 
	C474.415222,313.919281 464.185974,300.699585 453.961273,287.476379 
	C444.827393,275.663849 435.714355,263.835052 426.536835,252.056473 
	C422.614777,247.022873 418.552490,242.098557 414.553955,237.124573 
	C415.345001,243.766922 416.944153,249.964005 418.593903,256.147583 
	C424.387054,277.861694 430.203857,299.569458 435.999695,321.282837 
	C440.886047,339.588867 445.738403,357.903961 450.637482,376.206604 
	C456.406952,397.761047 462.198334,419.309631 468.003204,440.854584 
	C472.304474,456.818878 476.642426,472.773285 480.997559,489.579193 
z"/>
<path fill="#000000" opacity="1.000000" stroke="none" 
	d="
M801.000000,387.531342 
	C800.333374,387.013489 799.137756,386.058197 799.077454,385.035980 
	C797.553711,359.204041 792.386780,334.040741 785.617188,309.133820 
	C777.918884,280.810211 766.776001,253.868607 752.928101,228.074051 
	C742.084717,207.876068 729.492004,188.787476 715.342163,170.672836 
	C702.398254,154.102081 688.280823,138.620590 672.771790,124.565521 
	C659.645691,112.669914 645.548340,101.791580 631.420654,91.069351 
	C613.672852,77.599594 594.283447,66.624268 574.186707,57.139301 
	C545.689148,43.689472 516.222900,32.717785 485.077454,27.045370 
	C470.097076,24.317039 455.054474,21.404236 439.911530,20.223783 
	C419.652435,18.644510 399.254883,17.904694 378.943085,18.269049 
	C365.507446,18.510057 352.108551,21.249598 338.709869,22.998508 
	C314.186890,26.199465 290.486115,32.644836 267.211639,40.922272 
	C239.416534,50.807438 213.033310,63.460823 188.115295,79.294991 
	C169.576508,91.075478 152.024643,104.059113 135.677872,118.745316 
	C118.112389,134.526443 102.016289,151.583572 87.258690,170.056412 
	C67.601501,194.662323 51.380718,221.340332 38.166367,249.771515 
	C25.977962,275.995361 16.773333,303.314270 10.848988,331.750824 
	C7.061107,349.932465 3.818142,368.112000 2.941628,386.678223 
	C2.920350,387.128876 2.245665,387.548737 1.437867,387.991455 
	C1.000000,259.035828 1.000000,130.071655 1.000000,1.107492 
	C1.130790,1.071661 1.261579,1.004421 1.392369,1.004419 
	C267.818329,0.999985 534.244324,1.000000 801.000000,1.000000 
	C801.000000,129.687378 801.000000,258.375031 801.000000,387.531342 
z"/>
<path fill="#FFFFFF" opacity="1.000000" stroke="none" 
	d="
M480.980774,489.155640 
	C476.642426,472.773285 472.304474,456.818878 468.003204,440.854584 
	C462.198334,419.309631 456.406952,397.761047 450.637482,376.206604 
	C445.738403,357.903961 440.886047,339.588867 435.999695,321.282837 
	C430.203857,299.569458 424.387054,277.861694 418.593903,256.147583 
	C416.944153,249.964005 415.345001,243.766922 414.553955,237.124573 
	C418.552490,242.098557 422.614777,247.022873 426.536835,252.056473 
	C435.714355,263.835052 444.827393,275.663849 453.961273,287.476379 
	C464.185974,300.699585 474.415222,313.919281 484.623352,327.155243 
	C494.629608,340.129425 504.621246,353.115021 514.602600,366.108398 
	C528.829956,384.629181 542.990112,403.201965 557.276978,421.676758 
	C569.200134,437.094940 581.320679,452.360474 593.250122,467.773895 
	C605.361328,483.422089 617.261414,499.234009 629.408020,514.854431 
	C642.873474,532.170837 656.603577,549.281555 670.048462,566.613708 
	C680.576172,580.185303 690.761292,594.022278 701.254089,607.621399 
	C709.992371,618.946655 718.899414,630.143738 727.872070,641.284485 
	C729.538574,643.353638 729.783203,644.736877 728.057251,646.904724 
	C720.172119,656.808472 712.786316,667.129150 704.574280,676.747803 
	C696.115112,686.656006 687.590820,696.697205 677.873047,705.299744 
	C661.899536,719.440063 645.363586,733.032898 628.280212,745.807312 
	C610.351135,759.214111 590.558777,769.748108 570.282410,779.268860 
	C566.808105,780.900146 563.277588,782.411987 559.391174,784.149780 
	C551.564575,754.419861 543.860718,724.804260 535.958069,695.241882 
	C528.869995,668.726746 521.512146,642.283875 514.368591,615.783447 
	C508.183472,592.838318 502.104919,569.864319 496.029785,546.889709 
	C490.980896,527.796265 486.005493,508.683441 480.980774,489.155640 
z"/>
</svg>